<?xml version="1.0" encoding="utf-8"?>
<!-- Generator: Adobe Illustrator 21.1.0, SVG Export Plug-In . SVG Version: 6.00 Build 0)  -->
<svg version="1.1" id="Capa_1" xmlns="http://www.w3.org/2000/svg" xmlns:xlink="http://www.w3.org/1999/xlink" x="0px" y="0px"
	 viewBox="0 0 97.8 97.8" style="enable-background:new 0 0 97.8 97.8;" xml:space="preserve">
<style type="text/css">
	.st0{fill:#F1F0EA;}
</style>
<g>
	<g>
		<path class="st0" d="M48.9,0C21.9,0,0,21.9,0,48.9s21.9,48.9,48.9,48.9s48.9-21.9,48.9-48.9S75.9,0,48.9,0z M43.3,76.8
			c-14.3,0-28.9-6.9-28.9-18.3c0-6,3.8-12.8,10.3-19.3c8.7-8.7,18.8-12.6,22.6-8.8c1.7,1.7,1.8,4.6,0.8,8.1
			c-0.6,1.7,1.6,0.8,1.6,0.8c7-2.9,13.1-3.1,15.4,0.1c1.2,1.7,1.1,4.1,0,6.9c-0.5,1.3,0.2,1.5,1.1,1.8c4,1.2,8.4,4.2,8.4,9.4
			C74.5,65.9,62.1,76.8,43.3,76.8z M69.2,40.6c0.5-1.4,0.2-3.1-0.9-4.2c-1.1-1.2-2.7-1.6-4.1-1.3v0c-1.2,0.3-2.4-0.5-2.7-1.7
			c-0.3-1.2,0.5-2.4,1.7-2.7c3-0.6,6.3,0.3,8.5,2.7c2.2,2.4,2.8,5.8,1.9,8.7c-0.4,1.2-1.7,1.8-2.9,1.5C69.5,43,68.8,41.7,69.2,40.6
			L69.2,40.6z M82.4,44.8C82.4,44.8,82.4,44.8,82.4,44.8c-0.4,1.4-1.9,2.2-3.3,1.7c-1.4-0.4-2.1-1.9-1.7-3.3l0,0
			c1.4-4.3,0.5-9.1-2.7-12.7c-3.2-3.6-8-4.9-12.3-4c-1.4,0.3-2.8-0.6-3.1-2s0.6-2.8,2-3.1h0c6.2-1.3,12.8,0.6,17.4,5.6
			C83.1,32,84.4,38.8,82.4,44.8z"/>
		<path class="st0" d="M43.4,57.4c-0.7-0.3-1.5,0.1-1.9,0.7c-0.4,0.7-0.2,1.4,0.5,1.7c0.7,0.3,1.6,0,2-0.7
			C44.4,58.4,44.1,57.7,43.4,57.4z"/>
		<path class="st0" d="M40.7,45.6c-11.4,1.1-20.1,8.1-19.3,15.6c0.7,7.5,10.6,12.6,22,11.5c11.4-1.1,20-8.1,19.3-15.6
			C61.9,49.6,52.1,44.5,40.7,45.6z M50.7,63.2c-2.3,5.3-9,8.1-14.7,6.2c-5.5-1.8-7.8-7.2-5.4-12.1c2.4-4.8,8.5-7.5,13.9-6.1
			C50.1,52.8,53,58.1,50.7,63.2z"/>
		<path class="st0" d="M39.1,59.2c-1.8-0.7-4,0-5.1,1.7c-1.1,1.7-0.6,3.8,1.2,4.6c1.8,0.8,4.1,0,5.2-1.7C41.4,62,40.9,60,39.1,59.2z
			"/>
	</g>
</g>
</svg>
