<svg xmlns="http://www.w3.org/2000/svg" viewBox="0 0 98.11 85.26">
  <defs>
    <style>
      .cls-1 {
        fill: #f1f0ea;
      }
    </style>
  </defs>
  <title>logo</title>
  <g id="图层_2" data-name="图层 2">
    <g id="图层_1-2" data-name="图层 1">
      <g id="_编组_" data-name="&lt;编组&gt;">
        <polygon id="_路径_" data-name="&lt;路径&gt;" class="cls-1" points="54.58 74.65 43.29 54.46 16.58 7.64 22.6 7.64 46.15 48.33 52.06 58.54 54.37 62.52 57.99 68.78 59.16 66.76 62.9 59.99 62.91 60 67.71 51.82 93.63 7.64 98.11 0 86.36 0 80.85 0 69.11 0 64.74 7.64 53.42 27.75 54.6 29.78 59.34 37.96 76.48 7.64 81.89 7.64 58.9 46.38 56.43 42.13 50.52 31.92 35.51 5.98 32.17 0 17.2 0 12.22 0 10.61 0 0 0 4.36 7.64 37.17 65.17 48.41 85.26 54.58 74.65"/>
      </g>
    </g>
  </g>
</svg>
